<svg xmlns="http://www.w3.org/2000/svg" viewBox="0 0 32 32" width="32" height="32">
  <!-- Фон -->
  <rect width="32" height="32" rx="6" fill="#0f172a"/>
  
  <!-- Спутник Starlink -->
  <g fill="#fde047" stroke="#334155" stroke-width="0.3">
    <!-- Основное тело спутника -->
    <rect x="10" y="14" width="12" height="6" rx="1" fill="#1e293b"/>
    
    <!-- Солнечные панели -->
    <rect x="6" y="15" width="4" height="4" rx="0.5" fill="#fde047"/>
    <rect x="22" y="15" width="4" height="4" rx="0.5" fill="#fde047"/>
    
    <!-- Антенны -->
    <circle cx="12" cy="17" r="0.8" fill="#334155"/>
    <circle cx="20" cy="17" r="0.8" fill="#334155"/>
    
    <!-- Детали спутника -->
    <rect x="11" y="14.5" width="2" height="1" rx="0.2" fill="#fde047"/>
    <rect x="19" y="14.5" width="2" height="1" rx="0.2" fill="#fde047"/>
    <rect x="13" y="16" width="6" height="1" rx="0.2" fill="#fde047"/>
    
    <!-- Световые индикаторы -->
    <circle cx="11" cy="15.5" r="0.3" fill="#10b981"/>
    <circle cx="21" cy="15.5" r="0.3" fill="#10b981"/>
  </g>
  
  <!-- Звезды (Starlink constellation) -->
  <g fill="#fde047">
    <circle cx="6" cy="8" r="0.6"/>
    <circle cx="26" cy="6" r="0.5"/>
    <circle cx="28" cy="24" r="0.6"/>
    <circle cx="4" cy="26" r="0.4"/>
    <circle cx="16" cy="4" r="0.4"/>
    <circle cx="8" cy="28" r="0.3"/>
  </g>
  
  <!-- Орбитальная траектория -->
  <path d="M 2 16 Q 16 8 30 16 Q 16 24 2 16" 
        fill="none" 
        stroke="#334155" 
        stroke-width="0.5" 
        opacity="0.6"/>
</svg>
